<svg width="350" height="467" viewBox="0 0 350 467" fill="none" xmlns="http://www.w3.org/2000/svg">
<path d="M112.261 431.806C132.856 332.09 -92.033 239.281 -92.033 239.281L-106.808 286.741C-106.808 286.741 118.145 379.549 97.5496 479.202C76.9539 578.854 231.869 608.405 260.908 696.672L275.619 648.956C246.836 560.945 91.6651 531.459 112.261 431.806Z" fill="#E62F2E"/>
<path d="M137.071 351.986C157.667 252.398 -67.2225 159.525 -67.2225 159.525L-79.6311 199.438C-79.6311 199.438 145.258 292.246 124.663 391.898C104.067 491.551 258.982 521.101 288.021 609.368L300.43 569.456C271.647 481.189 116.476 451.703 137.071 351.986Z" fill="#E62F2E"/>
<path d="M124.667 391.895C145.263 292.242 -79.6269 199.434 -79.6269 199.434L-92.0354 239.282C-92.0354 239.282 132.854 332.09 112.258 431.807C91.6628 531.523 246.834 560.945 275.617 648.957L288.025 609.109C259.243 521.033 104.071 491.611 124.667 391.895Z" fill="white"/>
<path d="M85.3897 518.287C105.985 418.571 -119.288 325.826 -119.288 325.826L-133.999 373.222C-133.999 373.222 91.2102 466.03 70.6145 565.811C50.0188 665.591 204.934 694.949 233.973 782.961L248.748 735.565C219.901 647.49 64.5382 617.94 85.3897 518.287Z" fill="#E62F2E"/>
<path d="M97.794 478.371C118.39 378.719 -106.884 285.91 -106.884 285.91L-119.292 325.822C-119.292 325.822 105.981 418.695 85.3855 518.283C64.7898 617.872 219.705 647.486 248.744 735.753L261.152 695.841C232.306 607.574 77.3262 578.088 97.794 478.371Z" fill="white"/>
<path d="M161.893 272.223C182.489 172.57 -42.7845 79.7617 -42.7845 79.7617L-55.1292 119.61C-55.1292 119.61 169.76 212.418 149.165 312.135C128.569 411.851 283.484 441.337 312.523 529.285L324.932 489.437C296.405 401.425 141.297 371.939 161.893 272.223Z" fill="#E62F2E"/>
<path d="M149.487 312.132C170.083 212.416 -54.8065 119.607 -54.8065 119.607L-67.2151 159.52C-67.2151 159.52 157.674 252.392 137.079 351.981C116.483 451.569 271.398 481.183 300.437 569.451L312.846 529.538C284.063 441.335 128.892 411.785 149.487 312.132Z" fill="white"/>
<path d="M186.706 192.461C207.237 92.8085 -17.6522 0 -17.6522 0L-30.0608 39.8482C-30.0608 39.8482 194.893 132.657 174.297 232.309C153.701 331.962 308.617 361.512 337.655 449.779L350 409.867C321.217 321.664 166.11 292.113 186.706 192.461Z" fill="#E62F2E"/>
<path d="M174.298 232.316C194.894 132.664 -30.3797 39.8555 -30.3797 39.8555L-42.4685 79.7037C-42.4685 79.7037 182.485 172.576 161.889 272.229C141.294 371.881 296.209 401.431 325.248 489.699L337.656 449.786C308.809 361.519 153.702 332.033 174.298 232.316Z" fill="white"/>
<path d="M-17.6488 0L-79.6278 199.433C-79.6278 199.433 106.885 277.274 124.474 364.518L186.453 165.085C186.453 165.085 185.174 88.3312 -17.6488 0Z" fill="#263470"/>
<path d="M38.9492 96.008L35.2394 90.8271H28.3955L32.6809 86.2858C32.0413 84.3669 31.3377 82.3842 30.6341 80.4653L37.0303 82.8319L42.8508 79.7617C42.8508 81.7445 42.8508 83.7273 42.4031 85.7102L47.8398 89.6758L41.4437 90.8271C40.804 92.4901 40.0365 94.1531 38.9492 96.008Z" fill="white"/>
<path d="M6.98188 80.3351L2.69646 75.538H-4.33933C-3.06009 73.875 -1.71693 72.212 -0.373731 70.6129L-3.06011 65.0483L3.9117 66.7753L9.60434 63.1934C9.60434 65.2401 9.60434 67.223 9.60434 69.2058L15.5527 72.7237L8.7728 74.3867L6.98188 80.3351Z" fill="white"/>
<path d="M66.4521 112.7C65.4927 110.845 64.4053 109.054 63.382 107.263L56.9858 106.368L61.5271 102.21L59.992 96.2617C62.0388 97.2211 64.0855 98.1166 66.3882 99.14L72.2726 96.4536C72.2726 98.4365 71.697 100.419 71.3772 102.338L76.2383 106.751L69.8421 107.391C68.307 109.118 67.4116 110.909 66.4521 112.7Z" fill="white"/>
<path d="M91.4067 131.246C90.5752 129.391 89.7437 127.472 88.8483 125.617L82.4521 124.274L87.1852 120.436C87.1852 118.453 86.6096 116.407 86.2258 114.424L91.9824 117.75L97.9308 115.511C97.4831 117.494 96.9714 119.413 96.5236 121.332C97.9948 122.867 99.4019 124.466 100.873 126.065H94.4769L91.4067 131.246Z" fill="white"/>
<path d="M113.927 151.525C113.287 149.606 112.648 147.687 111.944 145.769L105.996 143.914L110.921 140.46C110.921 138.477 110.921 136.494 110.537 134.447L115.846 138.157L121.858 136.366C121.154 138.285 120.579 140.14 119.875 141.995C121.218 143.658 122.498 145.385 123.713 146.984H117.317L113.927 151.525Z" fill="white"/>
<path d="M133.933 173.212C133.549 171.293 133.037 169.31 132.589 167.328L126.897 165.153C128.624 164.066 130.351 163.106 132.078 162.083V156.07L136.875 160.1L142.887 158.757L140.457 164.257C141.608 166.006 142.695 167.733 143.719 169.438L137.323 168.671L133.933 173.212Z" fill="white"/>
<path d="M33.8403 58.7198L29.4909 53.0273H21.5597L26.1649 47.7184C25.3334 45.6077 24.5019 43.433 23.6064 41.3222L31.2819 43.8167L37.678 40.2988C37.678 42.5375 37.678 44.7122 37.678 46.695L44.0742 51.0444C41.5157 51.4282 38.9572 51.876 36.3988 52.3876L33.8403 58.7198Z" fill="white"/>
<path d="M-3.773 41.9649C-5.43601 40.1739 -7.09902 38.447 -8.82599 36.72L-17.0131 37.1677L-12.5358 31.6031L-15.7978 25.2069L-7.67467 27.0618L-1.2785 22.9043C-1.2785 25.143 -1.2785 27.3177 -1.2785 29.3005L5.69336 33.0742L-2.10998 35.057C-2.42979 37.7434 -3.06942 39.8541 -3.773 41.9649Z" fill="white"/>
<path d="M65.6792 76.8224C64.4639 74.8396 63.1847 72.8567 61.9054 70.8739L54.294 69.9785L59.4109 65.2453L57.4921 58.8491L64.5279 61.7913L70.924 58.7852C70.924 60.9599 70.3484 63.1346 70.0286 65.1813L75.7852 70.0424C73.2267 70.0424 70.7322 70.4901 68.2377 70.8099C67.662 72.8567 66.6386 74.8396 65.6792 76.8224Z" fill="white"/>
<path d="M94.8584 97.2813L91.7883 90.8852L84.4966 89.414C86.2236 87.9429 88.0145 86.5358 89.8694 85.1286C89.4217 82.8899 89.0379 80.6513 88.5902 78.7324L94.9864 82.3782L102.022 79.6919C101.574 81.8666 101.063 83.9773 100.551 86.088C102.278 87.815 104.005 89.542 105.668 91.3329C103.237 91.3329 100.743 91.3329 98.3124 91.3329L94.8584 97.2813Z" fill="white"/>
<path d="M121.271 119.806L118.84 113.41L111.932 111.683L117.497 107.845C117.497 105.543 117.113 103.368 116.921 101.449L123.317 105.479L130.097 103.56C129.458 105.671 128.754 107.717 128.051 109.956L132.592 115.521H125.428L121.271 119.806Z" fill="white"/>
<path d="M144.821 144.04L143.094 137.644L136.698 135.149L142.455 131.759C142.455 129.521 142.455 127.282 142.455 125.363L148.019 129.841L154.863 128.369C153.968 130.416 153.136 132.463 152.305 134.766L156.143 140.586L149.171 139.755C147.7 140.65 146.229 142.313 144.821 144.04Z" fill="white"/>
<path d="M165.473 169.688C165.473 167.513 164.769 165.275 164.449 163.292L158.053 160.35L164.066 157.343C164.066 155.169 164.513 152.93 164.705 150.947L169.758 155.872C171.997 155.489 174.299 155.169 176.538 154.913L173.468 160.733C174.555 162.78 175.643 164.763 176.666 167.13C174.406 166.618 172.274 166.17 170.27 165.786C168.607 166.554 166.88 168.089 165.473 169.688Z" fill="white"/>
<path d="M19.3213 156.446L15.7394 151.265L8.89551 150.753L13.2449 146.276C12.6053 144.357 11.9017 142.438 11.2621 140.455L17.6582 142.95C19.5771 141.926 21.496 140.903 23.4788 139.943C23.4788 141.926 23.4788 143.909 22.9671 145.892L28.3398 149.921L21.9437 151.009C20.9203 152.992 20.1528 154.846 19.3213 156.446Z" fill="white"/>
<path d="M46.312 173.721L43.3058 168.22L36.9096 167.261L41.4509 163.103C41.0032 161.12 40.5554 159.138 40.0437 157.219L46.4399 160.161L52.3883 157.603C52.0046 159.521 51.6848 161.504 51.365 163.423L56.1621 167.9L49.7659 168.412L46.312 173.721Z" fill="white"/>
<path d="M70.9267 192.654C70.1592 190.735 69.3277 188.88 68.4962 186.961L62.1 185.554C63.6351 184.275 65.2342 182.995 66.8972 181.78C66.8972 179.797 66.3215 177.75 66.0017 175.768L71.6943 179.158C73.6771 178.39 75.6599 177.686 77.7067 177.047L76.1716 182.803C77.6427 184.338 79.0499 185.938 80.457 187.537H74.0609L70.9267 192.654Z" fill="white"/>
<path d="M93.1993 213.191L91.2804 207.435L85.3319 205.58L90.3209 202.126C90.3209 200.143 90.3209 198.16 90.3209 196.113L95.5018 199.887L101.898 198.224C101.194 200.079 100.555 201.934 99.8512 203.853L103.625 208.842L97.2288 208.458L93.1993 213.191Z" fill="white"/>
<path d="M112.896 235.189C112.512 233.27 112.064 231.287 111.617 229.304L105.988 227.002L111.169 223.995C111.169 222.013 111.169 220.03 111.169 218.047C112.768 219.39 114.367 220.733 115.902 222.14L122.298 220.925L119.804 226.298C120.891 228.089 121.979 229.816 123.002 231.607L116.926 230.711L112.896 235.189Z" fill="white"/>
<path d="M14.334 117.565C12.8629 115.646 11.4557 113.727 9.92064 111.872H2.05337L6.8505 106.756C6.019 104.581 5.18748 102.47 4.29202 100.359L11.9674 102.854L18.3636 99.3359C18.3636 101.511 18.3636 103.749 18.3636 105.732L24.7598 110.082L17.0844 111.425C16.061 113.471 15.1655 115.518 14.334 117.565Z" fill="white"/>
<path d="M46.1797 135.656L42.406 129.644L34.7945 128.748L39.9114 124.079L37.9926 117.683L45.3482 120.625L51.7444 117.619C51.7444 119.794 51.1687 121.969 50.8489 124.015L56.6055 128.876L49.058 129.58C48.1625 131.691 47.1391 133.674 46.1797 135.656Z" fill="white"/>
<path d="M75.3565 156.453L72.2863 150.057L64.9947 148.586L70.3035 144.3C69.9197 142.126 69.536 139.887 69.0882 137.904C71.3269 139.056 73.5656 140.271 75.4844 141.55C77.7231 140.655 80.0257 139.823 82.2643 139.056C81.7526 141.166 81.3049 143.341 80.7932 145.452L85.9102 150.633H78.5546L75.3565 156.453Z" fill="white"/>
<path d="M101.771 178.647C100.939 176.472 100.172 174.298 99.3401 172.251L92.4322 170.268L97.9969 166.366L97.4212 159.65L103.817 163.744L110.597 161.761C109.958 163.872 109.254 165.983 108.551 168.157L113.092 173.722L105.864 173.338L101.771 178.647Z" fill="white"/>
<path d="M125.302 202.819L123.575 196.423L117.179 193.928L122.935 190.474C122.935 188.3 122.935 186.061 122.935 184.078L128.5 188.428L135.344 186.956C134.448 189.003 133.617 191.05 132.785 193.353L136.623 199.237L129.651 198.342C128.18 199.493 126.709 201.22 125.302 202.819Z" fill="white"/>
<path d="M145.971 228.538C145.971 226.299 145.267 224.124 144.947 222.141L138.551 219.199L144.564 216.193C144.564 213.954 145.011 211.78 145.203 209.797L150.256 214.658L157.036 213.699L153.966 219.583C155.053 221.566 156.141 223.613 157.164 225.979L150.448 224.572L145.971 228.538Z" fill="white"/>
<path d="M0.260665 214.018L-3.32118 208.773L-10.1651 208.325L-5.81568 203.848C-6.4553 201.929 -7.15886 200.01 -7.79848 198.027L-1.40231 200.522L4.41819 197.516C4.41819 199.498 4.09837 201.481 3.90648 203.4L9.2793 207.494L2.88312 208.517L0.260665 214.018Z" fill="white"/>
<path d="M27.2534 231.031L24.2472 225.595L17.851 224.635L22.3923 220.478C21.9446 218.495 21.4969 216.512 20.9852 214.529L27.3813 217.472L33.3298 214.913C32.946 216.896 32.6262 218.879 32.3064 220.798L37.1035 225.275L30.7073 225.787L27.2534 231.031Z" fill="white"/>
<path d="M51.7451 249.965C50.9776 248.11 50.1461 246.191 49.3146 244.336L42.9184 242.865C44.4535 241.586 46.1165 240.37 47.7155 239.091C47.7155 237.108 47.1399 235.125 46.8201 233.143C48.7389 234.23 50.6578 235.317 52.5127 236.469L58.525 234.358L56.99 240.114L61.2754 244.912H54.8792L51.7451 249.965Z" fill="white"/>
<path d="M74.1348 270.558L72.2159 264.802C70.2331 264.098 68.2503 263.522 66.2675 262.883L71.2565 259.493C71.2565 257.51 71.2565 255.463 71.2565 253.48L76.4374 257.254L82.8336 255.527C82.13 257.446 81.4904 259.301 80.7868 261.156L84.5605 266.209L78.1644 265.825C76.5014 267.36 75.2861 268.959 74.1348 270.558Z" fill="white"/>
<path d="M93.8389 292.555C93.4551 290.573 93.0073 288.654 92.5596 286.671L86.931 284.368L92.1119 281.362C92.1119 279.379 92.1119 277.396 92.1119 275.35L96.909 279.443L102.921 277.972L100.427 283.409L103.625 288.654L97.2288 287.822L93.8389 292.555Z" fill="white"/>
<path d="M-6.14455 179.476L-10.5579 173.783H-18.4252L-13.6281 168.73C-14.4596 166.555 -15.2911 164.445 -16.1865 162.334C-13.6281 163.101 -11.0696 163.933 -8.5111 164.828L-2.11493 161.311C-2.11493 163.485 -2.11493 165.724 -2.11493 167.707L4.28125 172.056L-3.39419 173.399C-4.48154 175.638 -5.31305 177.429 -6.14455 179.476Z" fill="white"/>
<path d="M25.7134 197.579L21.9396 191.566L14.3282 190.671L19.4451 186.002L17.5263 179.605L24.69 182.676L31.0862 179.669C31.0862 181.908 30.5105 184.083 30.1907 186.066L35.9473 190.863L28.3998 191.63C27.6962 193.613 26.6728 195.596 25.7134 197.579Z" fill="white"/>
<path d="M54.876 218.045L51.8058 211.649L44.5142 210.178L49.823 205.892C49.4392 203.654 49.0555 201.479 48.6078 199.496L55.0039 203.078L61.7839 200.647C61.2722 202.758 60.8244 204.933 60.3127 207.044L65.4297 212.288H58.0741L54.876 218.045Z" fill="white"/>
<path d="M81.2921 240.497C80.4606 238.386 79.693 236.212 78.8615 234.101L71.9537 232.118L77.5183 228.216L76.9427 221.82L83.3388 225.914L90.1188 223.611C89.4152 225.722 88.7756 227.833 88.072 230.007L92.6133 235.572L85.4495 235.188L81.2921 240.497Z" fill="white"/>
<path d="M104.843 264.733L103.116 258.337L96.7197 255.842L102.476 252.388C102.476 250.214 102.476 247.911 102.476 245.992L108.041 250.533L114.885 249.062C113.989 251.109 113.158 253.156 112.326 255.459L116.164 261.343L109.192 260.448L104.843 264.733Z" fill="white"/>
<path d="M125.494 290.772C125.494 288.533 124.79 286.359 124.406 284.376L118.01 281.434C119.993 280.41 121.976 279.387 124.023 278.427C124.023 276.253 124.47 274.014 124.662 272.031L129.715 276.892L136.495 275.933L133.425 281.817L136.623 287.83L130.227 286.487L125.494 290.772Z" fill="white"/>
<g style="mix-blend-mode:multiply" opacity="0.13">
<path d="M175.51 619.981C119.032 585.762 121.91 566.893 122.678 491.482C123.445 416.071 88.778 432.509 58.7159 441.72C28.6539 450.93 -81.9999 376.799 -52.0658 227.832C-31.726 125.493 15.4139 59.9961 42.9174 28.9107C33.579 23.9217 23.7289 18.9327 12.9833 13.8157C-5.24576 4.98899 -17.3985 0 -17.3985 0L-35.6916 58.7809L-42.0877 79.7603L-54.4324 119.608L-66.8409 159.521L-79.2495 199.433L-91.6581 239.281L-106.177 285.909L-118.586 325.821L-133.297 373.217C-133.297 373.217 91.2085 466.025 70.6128 565.806C50.0172 665.586 204.933 694.945 233.971 782.956L248.746 735.56L260.899 696.48L273.691 654.521C253.416 622.028 219.452 646.526 175.51 619.981Z" fill="#262425"/>
</g>
</svg>
