<svg width="30" height="21" viewBox="0 0 30 21" fill="none" xmlns="http://www.w3.org/2000/svg">
<path d="M29.1225 0.787612C29.1222 0.541888 28.9463 0.31078 28.7086 0.246894C28.5999 0.180781 0.711823 0.247693 0.576686 0.224571C0.312065 0.221659 0.0653701 0.42228 0.0171844 0.683362C-0.0234651 0.773795 0.0230649 20.2286 0.00599439 20.3332C0.00605148 20.6483 0.261652 20.904 0.576971 20.904H28.552C28.8674 20.904 29.123 20.6483 29.123 20.3331C29.126 20.3297 29.1211 0.791608 29.1225 0.787612ZM26.9897 1.36647L15.383 11.1568C14.8934 11.5697 14.2355 11.5697 13.7459 11.1568L2.13918 1.36647H26.9897ZM1.14783 19.7621V2.024L13.0097 12.0295C13.4674 12.4157 14.016 12.6087 14.5645 12.6087C15.1129 12.6087 15.6615 12.4157 16.1192 12.0295L27.9811 2.024V19.7621H1.14783Z" fill="#E01111"/>
</svg>
