<svg width="350" height="467" viewBox="0 0 350 467" fill="none" xmlns="http://www.w3.org/2000/svg">
<path d="M237.739 431.806C217.144 332.09 442.033 239.281 442.033 239.281L456.808 286.741C456.808 286.741 231.855 379.549 252.45 479.202C273.046 578.854 118.131 608.405 89.0921 696.672L74.3809 648.956C103.164 560.945 258.335 531.459 237.739 431.806Z" fill="#E62F2E"/>
<path d="M212.929 351.986C192.333 252.398 417.223 159.525 417.223 159.525L429.631 199.438C429.631 199.438 204.742 292.246 225.337 391.898C245.933 491.551 91.0175 521.101 61.9789 609.368L49.5703 569.456C78.3531 481.189 233.524 451.703 212.929 351.986Z" fill="#E62F2E"/>
<path d="M225.333 391.895C204.737 292.242 429.627 199.434 429.627 199.434L442.035 239.282C442.035 239.282 217.146 332.09 237.742 431.807C258.337 531.523 103.166 560.945 74.3832 648.957L61.9746 609.109C90.7574 521.033 245.929 491.611 225.333 391.895Z" fill="white"/>
<path d="M264.61 518.287C244.015 418.571 469.288 325.826 469.288 325.826L483.999 373.222C483.999 373.222 258.79 466.03 279.385 565.811C299.981 665.591 145.066 694.949 116.027 782.961L101.252 735.565C130.099 647.49 285.462 617.94 264.61 518.287Z" fill="#E62F2E"/>
<path d="M252.206 478.371C231.61 378.719 456.884 285.91 456.884 285.91L469.292 325.822C469.292 325.822 244.019 418.695 264.615 518.283C285.21 617.872 130.295 647.486 101.256 735.753L88.8477 695.841C117.694 607.574 272.674 578.088 252.206 478.371Z" fill="white"/>
<path d="M188.107 272.223C167.511 172.57 392.785 79.7617 392.785 79.7617L405.129 119.61C405.129 119.61 180.24 212.418 200.835 312.135C221.431 411.851 66.5156 441.337 37.477 529.285L25.0684 489.437C53.5953 401.425 208.703 371.939 188.107 272.223Z" fill="#E62F2E"/>
<path d="M200.513 312.132C179.917 212.416 404.807 119.607 404.807 119.607L417.215 159.52C417.215 159.52 192.326 252.392 212.921 351.981C233.517 451.569 78.6015 481.183 49.5629 569.451L37.1543 529.538C65.9371 441.335 221.108 411.785 200.513 312.132Z" fill="white"/>
<path d="M163.294 192.461C142.763 92.8085 367.652 0 367.652 0L380.061 39.8482C380.061 39.8482 155.107 132.657 175.703 232.309C196.299 331.962 41.3833 361.512 12.3446 449.779L0 409.867C28.7828 321.664 183.89 292.113 163.294 192.461Z" fill="#E62F2E"/>
<path d="M175.702 232.316C155.106 132.664 380.38 39.8555 380.38 39.8555L392.469 79.7037C392.469 79.7037 167.515 172.576 188.111 272.229C208.706 371.881 53.791 401.431 24.7523 489.699L12.3438 449.786C41.1905 361.519 196.298 332.033 175.702 232.316Z" fill="white"/>
<path d="M367.649 0L429.628 199.433C429.628 199.433 243.115 277.274 225.526 364.518L163.547 165.085C163.547 165.085 164.826 88.3312 367.649 0Z" fill="#263470"/>
<path d="M311.051 96.008L314.761 90.8271H321.605L317.319 86.2858C317.959 84.3669 318.662 82.3842 319.366 80.4653L312.97 82.8319L307.149 79.7617C307.149 81.7445 307.149 83.7273 307.597 85.7102L302.16 89.6758L308.556 90.8271C309.196 92.4901 309.963 94.1531 311.051 96.008Z" fill="white"/>
<path d="M343.018 80.3351L347.304 75.538H354.339C353.06 73.875 351.717 72.212 350.374 70.6129L353.06 65.0483L346.088 66.7753L340.396 63.1934C340.396 65.2401 340.396 67.223 340.396 69.2058L334.447 72.7237L341.227 74.3867L343.018 80.3351Z" fill="white"/>
<path d="M283.548 112.7C284.507 110.845 285.595 109.054 286.618 107.263L293.014 106.368L288.473 102.21L290.008 96.2617C287.961 97.2211 285.914 98.1166 283.612 99.14L277.727 96.4536C277.727 98.4365 278.303 100.419 278.623 102.338L273.762 106.751L280.158 107.391C281.693 109.118 282.588 110.909 283.548 112.7Z" fill="white"/>
<path d="M258.593 131.246C259.425 129.391 260.256 127.472 261.152 125.617L267.548 124.274L262.815 120.436C262.815 118.453 263.39 116.407 263.774 114.424L258.018 117.75L252.069 115.511C252.517 117.494 253.029 119.413 253.476 121.332C252.005 122.867 250.598 124.466 249.127 126.065H255.523L258.593 131.246Z" fill="white"/>
<path d="M236.073 151.525C236.713 149.606 237.352 147.687 238.056 145.769L244.004 143.914L239.079 140.46C239.079 138.477 239.079 136.494 239.463 134.447L234.154 138.157L228.142 136.366C228.846 138.285 229.421 140.14 230.125 141.995C228.782 143.658 227.502 145.385 226.287 146.984H232.683L236.073 151.525Z" fill="white"/>
<path d="M216.067 173.212C216.451 171.293 216.963 169.31 217.411 167.328L223.103 165.153C221.376 164.066 219.649 163.106 217.922 162.083V156.07L213.125 160.1L207.113 158.757L209.543 164.257C208.392 166.006 207.305 167.733 206.281 169.438L212.677 168.671L216.067 173.212Z" fill="white"/>
<path d="M316.16 58.7198L320.509 53.0273H328.44L323.835 47.7184C324.667 45.6077 325.498 43.433 326.394 41.3222L318.718 43.8167L312.322 40.2988C312.322 42.5375 312.322 44.7122 312.322 46.695L305.926 51.0444C308.484 51.4282 311.043 51.876 313.601 52.3876L316.16 58.7198Z" fill="white"/>
<path d="M353.773 41.9649C355.436 40.1739 357.099 38.447 358.826 36.72L367.013 37.1677L362.536 31.6031L365.798 25.2069L357.675 27.0618L351.278 22.9043C351.278 25.143 351.278 27.3177 351.278 29.3005L344.307 33.0742L352.11 35.057C352.43 37.7434 353.069 39.8541 353.773 41.9649Z" fill="white"/>
<path d="M284.321 76.8224C285.536 74.8396 286.815 72.8567 288.095 70.8739L295.706 69.9785L290.589 65.2453L292.508 58.8491L285.472 61.7913L279.076 58.7852C279.076 60.9599 279.652 63.1346 279.971 65.1813L274.215 70.0424C276.773 70.0424 279.268 70.4901 281.762 70.8099C282.338 72.8567 283.361 74.8396 284.321 76.8224Z" fill="white"/>
<path d="M255.142 97.2813L258.212 90.8852L265.503 89.414C263.776 87.9429 261.985 86.5358 260.131 85.1286C260.578 82.8899 260.962 80.6513 261.41 78.7324L255.014 82.3782L247.978 79.6919C248.426 81.8666 248.937 83.9773 249.449 86.088C247.722 87.815 245.995 89.542 244.332 91.3329C246.763 91.3329 249.257 91.3329 251.688 91.3329L255.142 97.2813Z" fill="white"/>
<path d="M228.729 119.806L231.16 113.41L238.068 111.683L232.503 107.845C232.503 105.543 232.887 103.368 233.079 101.449L226.683 105.479L219.903 103.56C220.542 105.671 221.246 107.717 221.949 109.956L217.408 115.521H224.572L228.729 119.806Z" fill="white"/>
<path d="M205.179 144.04L206.906 137.644L213.302 135.149L207.545 131.759C207.545 129.521 207.545 127.282 207.545 125.363L201.981 129.841L195.137 128.369C196.032 130.416 196.864 132.463 197.695 134.766L193.857 140.586L200.829 139.755C202.3 140.65 203.771 142.313 205.179 144.04Z" fill="white"/>
<path d="M184.527 169.688C184.527 167.513 185.231 165.275 185.551 163.292L191.947 160.35L185.934 157.343C185.934 155.169 185.487 152.93 185.295 150.947L180.242 155.872C178.003 155.489 175.701 155.169 173.462 154.913L176.532 160.733C175.445 162.78 174.357 164.763 173.334 167.13C175.594 166.618 177.726 166.17 179.73 165.786C181.393 166.554 183.12 168.089 184.527 169.688Z" fill="white"/>
<path d="M330.679 156.446L334.261 151.265L341.104 150.753L336.755 146.276C337.395 144.357 338.098 142.438 338.738 140.455L332.342 142.95C330.423 141.926 328.504 140.903 326.521 139.943C326.521 141.926 326.521 143.909 327.033 145.892L321.66 149.921L328.056 151.009C329.08 152.992 329.847 154.846 330.679 156.446Z" fill="white"/>
<path d="M303.688 173.721L306.694 168.22L313.09 167.261L308.549 163.103C308.997 161.12 309.445 159.138 309.956 157.219L303.56 160.161L297.612 157.603C297.995 159.521 298.315 161.504 298.635 163.423L293.838 167.9L300.234 168.412L303.688 173.721Z" fill="white"/>
<path d="M279.073 192.654C279.841 190.735 280.672 188.88 281.504 186.961L287.9 185.554C286.365 184.275 284.766 182.995 283.103 181.78C283.103 179.797 283.678 177.75 283.998 175.768L278.306 179.158C276.323 178.39 274.34 177.686 272.293 177.047L273.828 182.803C272.357 184.338 270.95 185.938 269.543 187.537H275.939L279.073 192.654Z" fill="white"/>
<path d="M256.801 213.191L258.72 207.435L264.668 205.58L259.679 202.126C259.679 200.143 259.679 198.16 259.679 196.113L254.498 199.887L248.102 198.224C248.806 200.079 249.445 201.934 250.149 203.853L246.375 208.842L252.771 208.458L256.801 213.191Z" fill="white"/>
<path d="M237.104 235.189C237.488 233.27 237.936 231.287 238.383 229.304L244.012 227.002L238.831 223.995C238.831 222.013 238.831 220.03 238.831 218.047C237.232 219.39 235.633 220.733 234.098 222.14L227.702 220.925L230.196 226.298C229.109 228.089 228.021 229.816 226.998 231.607L233.074 230.711L237.104 235.189Z" fill="white"/>
<path d="M335.666 117.565C337.137 115.646 338.544 113.727 340.079 111.872H347.947L343.149 106.756C343.981 104.581 344.813 102.47 345.708 100.359L338.033 102.854L331.636 99.3359C331.636 101.511 331.636 103.749 331.636 105.732L325.24 110.082L332.916 111.425C333.939 113.471 334.834 115.518 335.666 117.565Z" fill="white"/>
<path d="M303.82 135.656L307.594 129.644L315.206 128.748L310.089 124.079L312.007 117.683L304.652 120.625L298.256 117.619C298.256 119.794 298.831 121.969 299.151 124.015L293.395 128.876L300.942 129.58C301.837 131.691 302.861 133.674 303.82 135.656Z" fill="white"/>
<path d="M274.643 156.453L277.714 150.057L285.005 148.586L279.696 144.3C280.08 142.126 280.464 139.887 280.912 137.904C278.673 139.056 276.434 140.271 274.516 141.55C272.277 140.655 269.974 139.823 267.736 139.056C268.247 141.166 268.695 143.341 269.207 145.452L264.09 150.633H271.445L274.643 156.453Z" fill="white"/>
<path d="M248.229 178.647C249.061 176.472 249.828 174.298 250.66 172.251L257.568 170.268L252.003 166.366L252.579 159.65L246.183 163.744L239.403 161.761C240.042 163.872 240.746 165.983 241.449 168.157L236.908 173.722L244.136 173.338L248.229 178.647Z" fill="white"/>
<path d="M224.698 202.819L226.425 196.423L232.821 193.928L227.065 190.474C227.065 188.3 227.065 186.061 227.065 184.078L221.5 188.428L214.656 186.956C215.552 189.003 216.383 191.05 217.215 193.353L213.377 199.237L220.349 198.342C221.82 199.493 223.291 201.22 224.698 202.819Z" fill="white"/>
<path d="M204.029 228.538C204.029 226.299 204.733 224.124 205.053 222.141L211.449 219.199L205.436 216.193C205.436 213.954 204.989 211.78 204.797 209.797L199.744 214.658L192.964 213.699L196.034 219.583C194.947 221.566 193.859 223.613 192.836 225.979L199.552 224.572L204.029 228.538Z" fill="white"/>
<path d="M349.739 214.018L353.321 208.773L360.165 208.325L355.816 203.848C356.455 201.929 357.159 200.01 357.798 198.027L351.402 200.522L345.582 197.516C345.582 199.498 345.902 201.481 346.094 203.4L340.721 207.494L347.117 208.517L349.739 214.018Z" fill="white"/>
<path d="M322.747 231.031L325.753 225.595L332.149 224.635L327.608 220.478C328.055 218.495 328.503 216.512 329.015 214.529L322.619 217.472L316.67 214.913C317.054 216.896 317.374 218.879 317.694 220.798L312.896 225.275L319.293 225.787L322.747 231.031Z" fill="white"/>
<path d="M298.255 249.965C299.022 248.11 299.854 246.191 300.685 244.336L307.082 242.865C305.547 241.586 303.884 240.37 302.284 239.091C302.284 237.108 302.86 235.125 303.18 233.143C301.261 234.23 299.342 235.317 297.487 236.469L291.475 234.358L293.01 240.114L288.725 244.912H295.121L298.255 249.965Z" fill="white"/>
<path d="M275.865 270.558L277.784 264.802C279.767 264.098 281.75 263.522 283.733 262.883L278.743 259.493C278.743 257.51 278.743 255.463 278.743 253.48L273.563 257.254L267.166 255.527C267.87 257.446 268.51 259.301 269.213 261.156L265.439 266.209L271.836 265.825C273.499 267.36 274.714 268.959 275.865 270.558Z" fill="white"/>
<path d="M256.161 292.555C256.545 290.573 256.993 288.654 257.44 286.671L263.069 284.368L257.888 281.362C257.888 279.379 257.888 277.396 257.888 275.35L253.091 279.443L247.079 277.972L249.573 283.409L246.375 288.654L252.771 287.822L256.161 292.555Z" fill="white"/>
<path d="M356.145 179.476L360.558 173.783H368.425L363.628 168.73C364.46 166.555 365.291 164.445 366.187 162.334C363.628 163.101 361.07 163.933 358.511 164.828L352.115 161.311C352.115 163.485 352.115 165.724 352.115 167.707L345.719 172.056L353.394 173.399C354.482 175.638 355.313 177.429 356.145 179.476Z" fill="white"/>
<path d="M324.287 197.579L328.06 191.566L335.672 190.671L330.555 186.002L332.474 179.605L325.31 182.676L318.914 179.669C318.914 181.908 319.489 184.083 319.809 186.066L314.053 190.863L321.6 191.63C322.304 193.613 323.327 195.596 324.287 197.579Z" fill="white"/>
<path d="M295.124 218.045L298.194 211.649L305.486 210.178L300.177 205.892C300.561 203.654 300.945 201.479 301.392 199.496L294.996 203.078L288.216 200.647C288.728 202.758 289.176 204.933 289.687 207.044L284.57 212.288H291.926L295.124 218.045Z" fill="white"/>
<path d="M268.708 240.497C269.539 238.386 270.307 236.212 271.139 234.101L278.046 232.118L272.482 228.216L273.057 221.82L266.661 225.914L259.881 223.611C260.585 225.722 261.224 227.833 261.928 230.007L257.387 235.572L264.55 235.188L268.708 240.497Z" fill="white"/>
<path d="M245.157 264.733L246.884 258.337L253.28 255.842L247.524 252.388C247.524 250.214 247.524 247.911 247.524 245.992L241.959 250.533L235.115 249.062C236.011 251.109 236.842 253.156 237.674 255.459L233.836 261.343L240.808 260.448L245.157 264.733Z" fill="white"/>
<path d="M224.506 290.772C224.506 288.533 225.21 286.359 225.594 284.376L231.99 281.434C230.007 280.41 228.024 279.387 225.977 278.427C225.977 276.253 225.53 274.014 225.338 272.031L220.285 276.892L213.505 275.933L216.575 281.817L213.377 287.83L219.773 286.487L224.506 290.772Z" fill="white"/>
<g style="mix-blend-mode:multiply" opacity="0.13">
<path d="M174.49 619.981C230.968 585.762 228.09 566.893 227.322 491.482C226.555 416.071 261.222 432.509 291.284 441.72C321.346 450.93 432 376.799 402.066 227.832C381.726 125.493 334.586 59.9961 307.083 28.9107C316.421 23.9217 326.271 18.9327 337.017 13.8157C355.246 4.98899 367.398 0 367.398 0L385.692 58.7809L392.088 79.7603L404.432 119.608L416.841 159.521L429.25 199.433L441.658 239.281L456.177 285.909L468.586 325.821L483.297 373.217C483.297 373.217 258.791 466.025 279.387 565.806C299.983 665.586 145.067 694.945 116.029 782.956L101.254 735.56L89.1009 696.48L76.3086 654.521C96.5845 622.028 130.548 646.526 174.49 619.981Z" fill="#262425"/>
</g>
</svg>
