<svg width="29" height="21" viewBox="0 0 29 21" fill="none" xmlns="http://www.w3.org/2000/svg">
<path d="M28.9985 0.767604C28.9982 0.522926 28.8231 0.292801 28.5864 0.229187C28.4781 0.163356 0.708792 0.229983 0.574231 0.206959C0.310736 0.20406 0.0650917 0.403827 0.0171113 0.663797C-0.0233652 0.753846 0.0229667 20.1258 0.00596887 20.23C0.00602572 20.5438 0.260538 20.7983 0.574515 20.7983H28.4305C28.7445 20.7983 28.999 20.5438 28.999 20.2298C29.002 20.2265 28.9972 0.771583 28.9985 0.767604ZM26.8748 1.34399L15.3175 11.0926C14.8299 11.5038 14.1749 11.5038 13.6874 11.0926L2.13007 1.34399H26.8748ZM1.14295 19.6613V1.99872L12.9543 11.9617C13.4101 12.3461 13.9563 12.5383 14.5024 12.5383C15.0486 12.5383 15.5948 12.3461 16.0506 11.9617L27.8619 1.99872V19.6613H1.14295Z" fill="#1C7129"/>
</svg>
