<svg width="20" height="20" viewBox="0 0 24 24" fill="none" xmlns="http://www.w3.org/2000/svg">
<path d="M11.8518 0.416134C12.2467 0.162584 12.7533 0.162584 13.1482 0.416134L15.5957 1.98722C15.7693 2.09869 15.9688 2.1635 16.1748 2.17539L19.0783 2.34292C19.5469 2.36995 19.9567 2.66769 20.1272 3.10498L21.1837 5.81458C21.2587 6.00683 21.382 6.1765 21.5416 6.30721L23.7921 8.14936C24.1553 8.44665 24.3118 8.9284 24.1928 9.3824L23.4549 12.1955C23.4025 12.3951 23.4025 12.6049 23.4549 12.8045L24.1928 15.6176C24.3118 16.0716 24.1553 16.5533 23.7921 16.8506L21.5416 18.6928C21.382 18.8235 21.2587 18.9932 21.1837 19.1854L20.1272 21.895C19.9567 22.3323 19.5469 22.63 19.0783 22.6571L16.1748 22.8246C15.9688 22.8365 15.7693 22.9013 15.5957 23.0128L13.1483 24.5839C12.7533 24.8374 12.2467 24.8374 11.8518 24.5839L9.40433 23.0128C9.23067 22.9013 9.03121 22.8365 8.8252 22.8246L5.92173 22.6571C5.45315 22.63 5.04335 22.3323 4.87284 21.895L3.81629 19.1854C3.74133 18.9932 3.61805 18.8235 3.45837 18.6928L1.20788 16.8506C0.844686 16.5533 0.688155 16.0716 0.80724 15.6176L1.54514 12.8045C1.59749 12.6049 1.59749 12.3951 1.54514 12.1955L0.80724 9.3824C0.688155 8.9284 0.844686 8.44665 1.20788 8.14936L3.45837 6.30721C3.61805 6.1765 3.74133 6.00683 3.81629 5.81458L4.87284 3.10498C5.04335 2.66769 5.45315 2.36995 5.92173 2.34292L8.8252 2.17539C9.03121 2.1635 9.23067 2.09869 9.40433 1.98722L11.8518 0.416134Z" fill="url(#paint0_linear_3724_1275)"/>
<g clip-path="url(#clip0_3724_1275)">
<path d="M15 12.75C15.8053 12.75 16.5795 13.061 17.1611 13.6179C17.7427 14.1749 18.0869 14.9348 18.1219 15.7394L18.125 15.875V16.5C18.1251 16.8154 18.006 17.1191 17.7916 17.3503C17.5771 17.5816 17.2832 17.7232 16.9688 17.7469L16.875 17.75H8.125C7.80964 17.7501 7.5059 17.631 7.27466 17.4166C7.04342 17.2021 6.90178 16.9082 6.87813 16.5937L6.875 16.5V15.875C6.87505 15.0697 7.18596 14.2955 7.74291 13.7139C8.29986 13.1323 9.05984 12.7881 9.86438 12.7531L10 12.75H15ZM12.5 5.25C13.3288 5.25 14.1237 5.57924 14.7097 6.16529C15.2958 6.75134 15.625 7.5462 15.625 8.375C15.625 9.2038 15.2958 9.99866 14.7097 10.5847C14.1237 11.1708 13.3288 11.5 12.5 11.5C11.6712 11.5 10.8763 11.1708 10.2903 10.5847C9.70424 9.99866 9.375 9.2038 9.375 8.375C9.375 7.5462 9.70424 6.75134 10.2903 6.16529C10.8763 5.57924 11.6712 5.25 12.5 5.25Z" fill="white"/>
</g>
<defs>
<linearGradient id="paint0_linear_3724_1275" x1="12.5" y1="-16.5" x2="12.5" y2="25" gradientUnits="userSpaceOnUse">
<stop stop-color="#49C73B"/>
<stop offset="1" stop-color="#349EBF"/>
</linearGradient>
<clipPath id="clip0_3724_1275">
<rect width="15" height="15" fill="white" transform="translate(5 4)"/>
</clipPath>
</defs>
</svg>