<svg width="24" height="24" viewBox="0 0 24 24" fill="none" xmlns="http://www.w3.org/2000/svg">
<g clip-path="url(#clip0_4183_932)">
<path d="M19.2397 16.5371C17.18 16.5371 15.5068 18.2103 15.5068 20.27C15.5068 22.3297 17.18 24.0029 19.2397 24.0029C21.2994 24.0029 22.9726 22.3297 22.9726 20.27C22.9726 18.2103 21.3043 16.5371 19.2397 16.5371ZM20.7612 19.8101L19.1174 21.4442C19.0244 21.5371 18.8972 21.5909 18.7603 21.5909C18.6282 21.5909 18.501 21.5371 18.4031 21.4442L17.7182 20.7543C17.5225 20.5586 17.5225 20.2357 17.7182 20.04C17.9139 19.8444 18.2368 19.8444 18.4325 20.04L18.7652 20.3727L20.0518 19.0958C20.2475 18.9001 20.5704 18.9001 20.7661 19.0958C20.9569 19.2964 20.9569 19.6144 20.7612 19.8101Z" fill="black"/>
<path d="M18.4149 14.6732C18.2437 14.5704 18.0529 14.4922 17.8327 14.4335C15.504 13.8415 13.6106 12.5059 13.6106 12.5059L12.1331 17.183L11.8543 18.0636L11.8494 18.0538L11.6048 18.7974L10.8269 16.5861C12.7398 13.9149 10.4404 13.9393 10.3132 13.9442C10.186 13.9393 7.88166 13.9149 9.79947 16.5861L9.01669 18.7926L8.77207 18.0489L8.76718 18.0587L8.48832 17.1781L7.01082 12.5059C7.01082 12.5059 5.11747 13.8366 2.78871 14.4335C1.05681 14.8787 0.973638 16.8796 1.04213 17.8728C1.04213 17.8728 1.14487 19.2182 1.24272 19.8102C1.24272 19.8102 4.63313 22.0117 10.3132 22.0166C11.8298 22.0166 13.1801 21.8601 14.3494 21.6252C14.2271 21.1898 14.1635 20.7348 14.1635 20.2652C14.1635 17.7847 15.9492 15.7153 18.3024 15.2749C18.5959 15.2211 18.6742 14.8248 18.4149 14.6732Z" fill="black"/>
<path d="M14.6421 6.22991C14.7155 6.02443 14.7693 5.81895 14.8085 5.61347C15.4543 1.72893 13.5413 1.59195 13.5413 1.59195C13.5413 1.59195 13.2233 0.980402 12.3867 0.520519C11.829 0.187838 11.0462 -0.0665649 10.0188 0.0214977C9.68615 0.0361748 9.37304 0.0997756 9.07461 0.202515C8.6979 0.329717 8.35054 0.515627 8.03743 0.735783C7.65093 0.980402 7.28889 1.27884 6.97089 1.61641C6.46208 2.135 6.01199 2.80526 5.81629 3.64185C5.65484 4.26807 5.68909 4.91876 5.82608 5.61837C5.86522 5.82385 5.91903 6.02933 5.99242 6.23481C5.60592 6.19567 5.15582 6.41582 5.58146 7.91778C5.88968 9.01367 6.17833 9.32189 6.39848 9.34146C6.59907 10.6477 7.6069 12.3062 9.26052 12.8884C9.94056 13.1282 10.6842 13.1282 11.3593 12.8835C12.9885 12.2964 14.0257 10.6428 14.2312 9.34146C14.4513 9.32189 14.74 9.01856 15.0482 7.91778C15.4738 6.41582 15.0237 6.19567 14.6421 6.22991Z" fill="black"/>
</g>
<defs>
<clipPath id="clip0_4183_932">
<rect width="24" height="24" fill="white"/>
</clipPath>
</defs>
</svg>
